<?xml version="1.0" encoding="UTF-8"?>
<svg width="1500px" height="1500px" viewBox="0 0 1500 1500" version="1.1" xmlns="http://www.w3.org/2000/svg" xmlns:xlink="http://www.w3.org/1999/xlink">
    <title>Slice</title>
    <g id="Page-1" stroke="none" stroke-width="1" fill="none" fill-rule="evenodd">
        <g id="light" transform="translate(440.000000, 207.000000)">
            <g id="a_classic_resized" transform="translate(309.913778, 543.000000) scale(-1, 1) translate(-309.913778, -543.000000) ">
                <path d="M445.039313,837.488095 L460.001907,836 L450.276221,845.672619 C449.528092,845.672619 449.528092,846.416667 448.031832,847.904762 C447.283703,848.64881 446.535573,849.392857 446.535573,850.136905 C444.291184,852.369048 442.046795,856.089286 439.802406,859.065476 C439.054276,861.297619 437.558017,864.27381 436.809887,867.25 C434.565498,873.202381 433.069239,879.89881 431.572979,888.827381 C430.07672,897.755952 429.32859,908.172619 427.832331,919.333333 C427.084201,931.982143 426.336072,944.630952 426.336072,957.279762 C425.587942,971.416667 425.587942,985.553571 425.587942,997.458333 L425.587942,1001.92262 C426.336072,1001.92262 426.336072,1001.92262 426.336072,1001.92262 L391.173977,1038.38095 L391.922107,1038.38095 L379.952032,1048.79762 L350.026845,1074.83929 L349.278715,1075.58333 C344.041807,1080.04762 338.8049,1084.5119 310.375972,1086 L309.627842,1086 C281.947044,1084.5119 275.962007,1080.04762 270.725099,1075.58333 L269.976969,1074.83929 L240.051782,1048.79762 L228.829837,1038.38095 L194.415872,1001.92262 L194.415872,997.458333 C194.415872,985.553571 194.415872,971.416667 194.415872,957.279762 C193.667742,944.630952 192.919613,931.982143 192.171483,919.333333 C191.423353,908.172619 189.927094,897.755952 188.430835,888.827381 C186.934575,879.89881 185.438316,873.202381 183.193927,867.25 C182.445797,864.27381 181.697668,861.297619 180.201408,859.065476 C177.957019,856.089286 176.46076,852.369048 173.468241,850.136905 C173.468241,849.392857 172.720111,848.64881 171.971982,847.904762 C171.223852,847.160714 170.475722,846.416667 169.727593,845.672619 L160.001907,836 L174.964501,838.232143 C180.201408,838.97619 185.438316,838.97619 191.423353,839.720238 C198.15652,840.464286 204.889688,841.208333 212.370984,841.208333 C226.585448,842.696429 241.548042,843.440476 257.258765,843.440476 C275.213877,844.184524 293.168989,844.928571 309.627842,844.928571 C326.086695,844.928571 344.041807,844.184524 361.996919,843.440476 C377.707643,843.440476 393.418366,842.696429 407.63283,841.208333 C415.114126,841.208333 421.847294,840.464286 428.580461,839.720238 C434.565498,838.97619 439.802406,838.232143 445.039313,837.488095 Z M320.849787,884.363095 C298.405897,884.363095 272.221358,883.619048 246.784949,882.875 C230.326097,882.130952 213.867244,881.386905 199.65278,879.89881 C200.400909,882.130952 201.149039,885.107143 201.149039,888.083333 C201.897169,892.547619 202.645299,897.011905 203.393428,901.47619 C216.859762,902.964286 231.822356,903.708333 246.784949,904.452381 C271.473229,905.940476 298.405897,905.940476 320.849787,905.940476 L320.849787,913.380952 C298.405897,913.380952 272.221358,913.380952 246.784949,911.892857 C231.822356,911.14881 217.607892,910.404762 204.141558,908.916667 C204.141558,912.636905 204.889688,915.613095 204.889688,918.589286 C205.637817,923.053571 205.637817,926.77381 205.637817,931.238095 C218.356022,931.982143 232.570486,933.470238 246.784949,933.470238 C271.473229,934.958333 298.405897,935.702381 320.849787,935.702381 L320.849787,942.39881 C298.405897,942.39881 272.221358,942.39881 246.784949,940.910714 C232.570486,940.166667 219.104151,939.422619 206.385947,938.678571 C206.385947,944.630952 207.134077,950.583333 207.134077,956.535714 C207.134077,958.02381 207.134077,958.767857 207.134077,960.255952 C219.852281,961.744048 233.318615,962.488095 246.784949,963.232143 C271.473229,963.97619 298.405897,964.720238 320.849787,964.720238 L320.849787,971.416667 C298.405897,971.416667 272.221358,971.416667 246.784949,969.928571 C233.318615,969.184524 219.852281,968.440476 207.134077,967.696429 C207.134077,975.880952 207.134077,984.065476 207.134077,992.25 L211.622855,992.25 C215.363503,992.994048 219.104151,992.994048 222.09667,992.994048 C226.585448,993.738095 231.074226,993.738095 234.814875,993.738095 C240.051782,993.738095 244.54056,994.482143 249.029338,994.482143 C253.518116,994.482143 258.755024,994.482143 263.243802,995.22619 C268.48071,995.22619 273.717618,995.22619 278.954525,995.22619 C284.191433,995.22619 289.428341,995.22619 294.665249,995.22619 C299.902156,995.970238 305.139064,995.970238 310.375972,995.970238 C314.86475,995.970238 320.101658,995.970238 326.086695,995.22619 C330.575473,995.22619 335.812381,995.22619 341.797418,995.22619 C346.286196,995.22619 351.523104,995.22619 356.760012,995.22619 C361.24879,994.482143 366.485698,994.482143 371.722605,994.482143 C376.211383,994.482143 380.700161,993.738095 385.188939,993.738095 C388.929588,993.738095 393.418366,993.738095 397.907144,992.994048 C401.647792,992.994048 404.640311,992.994048 408.380959,992.25 L412.869737,992.25 C412.869737,981.089286 412.869737,968.440476 412.869737,956.535714 C413.617867,943.886905 414.365997,930.494048 415.114126,918.589286 C415.862256,907.428571 417.358515,897.011905 418.854775,888.083333 C420.351034,879.154762 421.847294,871.714286 424.091683,865.761905 C424.839812,862.785714 426.336072,859.809524 427.832331,856.089286 C429.32859,853.857143 430.07672,852.369048 431.572979,850.136905 L427.084201,850.880952 C421.099164,851.625 413.617867,851.625 406.13657,852.369048 C392.670236,853.113095 377.707643,853.857143 361.996919,854.60119 C344.041807,855.345238 326.086695,855.345238 309.627842,855.345238 C293.168989,855.345238 275.213877,855.345238 258.006895,854.60119 C242.296171,853.857143 226.585448,853.113095 213.119114,852.369048 C205.637817,851.625 198.90465,851.625 192.919613,850.880952 L188.430835,850.136905 C189.927094,852.369048 191.423353,854.60119 192.171483,856.089286 C193.667742,859.809524 195.164002,862.785714 195.912131,865.761905 C196.660261,867.994048 197.408391,870.22619 198.15652,872.458333 C212.370984,873.946429 229.577967,874.690476 246.784949,875.434524 C271.473229,876.922619 298.405897,876.922619 320.849787,876.922619 L320.849787,884.363095 Z M342.545548,1068.14286 L361.24879,1051.02976 C359.004401,1051.77381 355.263752,1051.77381 352.271234,1051.77381 C346.286196,1051.77381 339.553029,1051.77381 332.071732,1051.77381 C325.338565,1052.51786 317.857269,1052.51786 310.375972,1052.51786 C302.894675,1052.51786 295.413378,1052.51786 287.932082,1051.77381 C281.198914,1051.77381 274.465747,1051.77381 268.48071,1051.77381 C264.740062,1051.77381 261.747543,1051.77381 258.755024,1051.02976 L277.458266,1068.14286 L278.206396,1068.8869 C282.695174,1071.8631 286.435822,1075.58333 310.375972,1076.32738 C333.567992,1075.58333 338.05677,1071.8631 341.797418,1068.8869 L342.545548,1068.14286 Z" id="base" fill="#000000" fill-rule="nonzero" transform="translate(310.001907, 961.000000) scale(-1, 1) translate(-310.001907, -961.000000) "></path>
                <path d="M590.325322,434.314429 C504.562666,444.843264 410.987849,450.107681 309.600872,450.107681 C157.520406,450.107681 28.5890574,433.852824 28.8754645,434.314429 C51.2621915,477.374731 109.189611,614.578607 124.276545,675.216798 C139.580037,736.944724 141.801771,759.315865 142.523634,815.326633 C142.523634,816.411101 142.6787,817.832493 142.988834,819.590811 L145.876286,825.536971 C148.412986,829.406799 236.876131,835.597959 321.465719,835.607585 C406.055307,835.617172 474.054669,826.590175 475.150024,824.810481 C475.703508,824.051402 476.151296,823.222793 476.48146,822.346734 L478.037476,815.492462 C478.77538,759.315865 480.989093,736.95262 496.284565,675.208902 C511.668265,613.078248 568.741622,473.750179 590.325322,434.314429 Z" id="case" stroke="#000000" stroke-width="12"></path>
                <path d="M619.827555,305.236181 C619.827555,136.919598 480.740451,0 309.787282,0 C138.946402,0 -2.42058977e-14,136.919598 -2.42058977e-14,305.236181 C-0.157043247,349.702849 9.67195192,394.06744 28.8764218,434.314429 C29.3274489,435.380943 157.521414,450.107681 309.600872,450.107681 C461.68033,450.107681 561.735725,437.375254 590.325322,434.314429 C610.143075,393.439043 619.860687,350.529478 619.827555,305.236181 Z" id="light" stroke="#000000" stroke-width="12"></path>
            </g>
        </g>
    </g>
</svg>