<svg viewBox="0 0 48 48" xmlns="http://www.w3.org/2000/svg"><path d="M21.382 8c6.872 0 12.916 4.746 14.578 11.361a10.952 10.952 0 0 1 6.71 7.671.963.963 0 0 1-.718 1.16.96.96 0 0 1-1.16-.717 9 9 0 0 0-5.949-6.465.974.974 0 0 1-.644-.717C32.923 14.288 27.533 9.93 21.382 9.93c-6.185 0-11.58 4.385-12.834 10.437a.968.968 0 0 1-.627.713 8.979 8.979 0 0 0-5.997 8.462 8.922 8.922 0 0 0 8.75 8.964h1.563a.963.963 0 0 1 0 1.925h-1.67c-.048 0-.095 0-.142-.01A10.847 10.847 0 0 1 0 29.538c0-4.442 2.702-8.428 6.782-10.09C8.414 12.781 14.467 8 21.382 8Zm12.44 17.791c2.057 0 3.8.696 5.192 2.07 1.392 1.38 2.096 3.097 2.096 5.108 0 1.993-.704 3.706-2.091 5.098-1.388 1.392-3.106 2.096-5.099 2.096-2.014 0-3.741-.7-5.133-2.083-1.392-1.383-2.096-3.08-2.096-5.047 0-1.306.322-2.53.954-3.647a7.064 7.064 0 0 1 6.177-3.595Zm-13.909-.004c1.259 0 2.414.253 3.436.756a6.744 6.744 0 0 1 2.543 2.135.637.637 0 0 1-.129.876l-.983.756a.632.632 0 0 1-.89-.116 4.791 4.791 0 0 0-1.726-1.422 5.125 5.125 0 0 0-2.234-.485c-.88 0-1.705.214-2.452.635a4.435 4.435 0 0 0-1.736 1.688c-.408.705-.614 1.512-.614 2.402 0 1.357.451 2.452 1.375 3.354.927.906 2.074 1.345 3.505 1.345 1.567 0 2.843-.597 3.904-1.83a.64.64 0 0 1 .868-.09l.983.747a.625.625 0 0 1 .24.42.607.607 0 0 1-.128.473 6.94 6.94 0 0 1-2.56 2.02c-1.01.472-2.148.708-3.385.708-2.362 0-4.26-.808-5.644-2.397-1.16-1.344-1.744-2.976-1.744-4.862 0-1.993.709-3.698 2.114-5.064 1.396-1.358 3.165-2.05 5.257-2.05Zm25.158 5.498c.833 0 1.52.279 2.048.829.524.545.787 1.198.787 1.937 0 .507-.125.992-.37 1.439-.219.404-.618.915-1.215 1.563l-.782.842h1.825c.353 0 .636.284.636.636v.687a.634.634 0 0 1-.636.636h-4.832a.64.64 0 0 1-.584-.382.633.633 0 0 1 .116-.688l2.719-2.938c.644-.691.893-1.035.992-1.202.112-.19.163-.378.163-.584a.752.752 0 0 0-.253-.576.884.884 0 0 0-.653-.253c-.284 0-.503.081-.683.266-.193.193-.3.481-.33.876a.64.64 0 0 1-.636.589H42.7a.63.63 0 0 1-.456-.194.628.628 0 0 1-.18-.46c.021-.867.322-1.593.889-2.16.571-.571 1.284-.863 2.118-.863Zm-11.19-3.011c-.807 0-1.58.215-2.306.636a4.556 4.556 0 0 0-1.705 1.71c-.409.712-.615 1.524-.615 2.409 0 1.318.443 2.4 1.353 3.307.91.906 1.98 1.349 3.269 1.349.863 0 1.64-.206 2.375-.623a4.367 4.367 0 0 0 1.688-1.688c.404-.717.61-1.525.61-2.405 0-.872-.202-1.671-.605-2.371a4.556 4.556 0 0 0-1.714-1.688 4.674 4.674 0 0 0-2.35-.636Z" fill="#313132" fill-rule="evenodd"/></svg>