<svg viewBox="0 0 48 48" xmlns="http://www.w3.org/2000/svg"><path d="M29.938 8.817c4.066 5.334 6.141 11.868 5.552 17.475a9.487 9.487 0 0 1-.056.44c.91-2.11.88-4.492.637-6.312a1.195 1.195 0 0 1 2.118-.91c1.059 1.316 1.994 3.464 2.468 4.9 1.824 5.508.59 11.876-3.22 16.625C33.764 45.59 28.811 48 23.468 48c-2.144 0-4.348-.389-6.555-1.179-3.263-1.17-6.274-3.472-8.26-6.32-2.404-3.447-3.194-7.435-2.289-11.535C7.133 25.48 9 23.06 10.648 20.92c.252-.329.504-.653.743-.974l.14-.188c.82-1.097 1.67-2.233 2.238-3.69.662-1.695.56-2.49.334-4.219-.039-.299-.082-.615-.12-.96A1.197 1.197 0 0 1 15.69 9.67c1.046.5 1.99 2.067 2.17 2.375.798 1.38 1.324 3.006 1.55 4.749 1.563-4.425.465-9.742-3.015-13.137-.466-.452-.953-.794-1.341-1.063-.282-.197-.504-.35-.683-.525a1.2 1.2 0 0 1 .786-2.063c5.799-.214 11.586 4.616 14.78 8.81ZM19.172 3.154c4.112 5.035 4.522 12.385.786 17.74l-.692.936a.976.976 0 0 1-.124.14l-.043.043c-.09.09-.085.09-.218.188-.393.29-.94.333-1.358.077a1.193 1.193 0 0 1-.58-1.204c.358-2.144.213-4.275-.39-6.09a9.828 9.828 0 0 1-.559 1.952c-.687 1.759-1.678 3.087-2.553 4.253l-.141.188c-.248.329-.504.666-.765 1.004-1.567 2.037-3.186 4.142-3.84 7.102-.973 4.415.62 12.077 9.02 15.083 9.678 3.464 15.7-2.365 17.843-5.035 3.31-4.12 4.386-9.63 2.814-14.375v-.004c-.316 1.738-.999 3.502-2.297 5.031-.385.453-1.743 1.943-3.011 2.05a1.19 1.19 0 0 1-1.119-.555 1.201 1.201 0 0 1-.017-1.247c.47-.795 1.02-3.054 1.162-4.395.53-5.013-1.367-10.911-5.074-15.775-2.208-2.896-5.483-5.774-8.844-7.107Zm2.1 21.7c.394.191.603.41.97.772 4.006 3.874 6.842 17.399-2.746 16.438-2.11-.21-3.762-1.32-4.433-2.763-.414-.893-.512-2.012-.311-3.054.593-3.045 3.655-2.425 5.325-5.406 1.042-1.854 3.288-4.95 1.196-5.988Z" fill="#313132" fill-rule="evenodd"/></svg>