<svg viewBox="0 0 48 48" xmlns="http://www.w3.org/2000/svg"><path d="M24.037 6c7.73 0 14.523 5.33 16.394 12.77 3.756 1.439 6.615 4.69 7.54 8.62a1.093 1.093 0 0 1-.804 1.31 1.08 1.08 0 0 1-1.303-.805 10.14 10.14 0 0 0-6.693-7.27 1.078 1.078 0 0 1-.722-.804c-1.44-6.755-7.492-11.655-14.407-11.655-6.955 0-13.017 4.934-14.427 11.728a1.086 1.086 0 0 1-.703.804 10.094 10.094 0 0 0-6.74 9.513c0 5.471 4.278 9.896 9.745 10.07a.47.47 0 0 1 .082.005h1.754a1.084 1.084 0 1 1 0 2.171h-1.875a.892.892 0 0 1-.16-.014A12.187 12.187 0 0 1 0 30.21c0-4.991 3.039-9.47 7.623-11.34C9.46 11.38 16.268 6 24.037 6Zm-1.653 19.995c1.41 0 2.714.29 3.862.853a7.655 7.655 0 0 1 2.86 2.404.712.712 0 0 1-.146.983l-1.105.853a.711.711 0 0 1-.998-.13 5.42 5.42 0 0 0-1.938-1.6c-.751-.363-1.595-.547-2.506-.547a5.54 5.54 0 0 0-2.757.712c-.848.475-1.488 1.095-1.948 1.9-.46.79-.693 1.7-.693 2.699 0 1.522.499 2.757 1.54 3.77 1.043 1.018 2.332 1.512 3.94 1.512 1.765 0 3.199-.673 4.391-2.06a.72.72 0 0 1 .974-.101l1.105.838c.15.112.252.286.267.48a.705.705 0 0 1-.146.533 7.823 7.823 0 0 1-2.878 2.268c-1.134.533-2.418.8-3.804.8-2.661 0-4.798-.911-6.349-2.7-1.299-1.507-1.958-3.348-1.958-5.466 0-2.244.795-4.163 2.375-5.694 1.575-1.532 3.562-2.307 5.912-2.307Zm15.643 0c2.307 0 4.265.785 5.83 2.336 1.566 1.55 2.36 3.48 2.36 5.742 0 2.24-.79 4.168-2.35 5.729-1.56 1.56-3.484 2.355-5.728 2.355-2.263 0-4.202-.79-5.767-2.346-1.565-1.56-2.36-3.465-2.36-5.675a8.23 8.23 0 0 1 1.07-4.1c.718-1.254 1.697-2.258 2.933-2.97a7.949 7.949 0 0 1 4.012-1.071Zm.063 2.791c-.906 0-1.778.238-2.592.713a5.114 5.114 0 0 0-1.92 1.924c-.455.8-.688 1.71-.688 2.709 0 1.483.5 2.699 1.522 3.717 1.023 1.022 2.23 1.516 3.674 1.516.974 0 1.846-.227 2.67-.697a4.993 4.993 0 0 0 1.904-1.905c.46-.8.688-1.706.688-2.7 0-.978-.227-1.875-.683-2.66a5.115 5.115 0 0 0-1.929-1.9 5.27 5.27 0 0 0-2.646-.717Z" fill="#313132" fill-rule="evenodd"/></svg>