<svg viewBox="0 0 48 48" xmlns="http://www.w3.org/2000/svg"><path d="M45.72 15.553c-.687-.587-1.637-.635-3.742-.473-2.613.272-6.219.824-9.847.982-2.704.118-5.413.18-8.127.188-2.709-.004-5.422-.07-8.127-.188-3.623-.158-7.23-.71-9.846-.982-2.105-.162-3.055-.114-3.742.473A23.923 23.923 0 0 0 0 25.795c0 .64.03 1.275.083 1.906.267.28.57.552.915.806 3.116 2.287 6.525 3.96 10.262 4.906 1.164.294 2.412.438 3.606.373 1.576-.084 2.858-1.03 4.088-1.954.937-.701 1.807-1.485 2.761-2.164.81-.578 1.55-.872 2.285-.916.735.044 1.475.338 2.284.916.95.679 1.825 1.463 2.762 2.164 1.23.924 2.512 1.87 4.087 1.954a12.37 12.37 0 0 0 3.607-.373c3.737-.946 7.146-2.615 10.262-4.906.35-.258.648-.526.915-.806a23.791 23.791 0 0 0-2.197-12.148Zm-27.834 8.858c-.271 1.428-2.792 2.147-5.628 1.608-2.84-.539-4.919-2.134-4.648-3.562.272-1.428 2.793-2.146 5.628-1.607 2.836.543 4.92 2.137 4.648 3.561Zm17.869 1.612c-2.84.539-5.357-.184-5.628-1.608-.272-1.428 1.812-3.022 4.648-3.557 2.84-.538 5.356.184 5.628 1.608.275 1.424-1.808 3.018-4.648 3.557Z" fill="#313132" fill-rule="evenodd"/></svg>