<svg viewBox="0 0 48 48" xmlns="http://www.w3.org/2000/svg"><path d="M14.984 0a9.56 9.56 0 0 1 6.956 2.983 9.469 9.469 0 0 1 1.857-.184 9.6 9.6 0 0 1 6.664 2.691 12.251 12.251 0 0 1 2.587-.278c6.711 0 12.168 5.458 12.168 12.169 0 3.591-1.545 6.928-4.265 9.246-.25 3.898-2.94 7.263-6.654 8.36a9.32 9.32 0 0 1-2.144 2.984v.17a6.32 6.32 0 0 1-4.581 6.098A4.228 4.228 0 0 1 23.368 48a4.24 4.24 0 0 1-3.214-6.999 6.246 6.246 0 0 1-.674-2.54 3.082 3.082 0 0 1-3.832-1.786 4.965 4.965 0 0 1-3.803-3.662 9.008 9.008 0 0 1-.796.038C6.058 33.051 2 28.993 2 24.002c0-3.68 2.267-6.946 5.538-8.337A9.527 9.527 0 0 1 5.384 9.6c0-5.292 4.307-9.6 9.6-9.6Zm0 2.437c-3.945 0-7.159 3.209-7.159 7.158a7.105 7.105 0 0 0 2.818 5.689 1.222 1.222 0 0 1-.56 2.182c-3.215.471-5.637 3.28-5.637 6.532a6.615 6.615 0 0 0 8.2 6.414 1.228 1.228 0 0 1 1.513 1.263l-.005.061c0 .028-.004.061-.004.09a2.514 2.514 0 0 0 2.512 2.512c.673 0 1.22.542 1.22 1.215a.626.626 0 0 0 1.112.392c.222-.274.552-.439.9-.453.015-.01.029-.01.048-.01.334 0 .655.137.886.383.216.226.443.438.678.631.335.269.5.693.443 1.117a3.869 3.869 0 0 0 .754 2.88 1.222 1.222 0 0 1-.31 1.767 1.796 1.796 0 0 0-.825 1.508c0 .99.805 1.795 1.795 1.795a1.798 1.798 0 0 0 1.767-2.11 1.229 1.229 0 0 1 .227-.953 1.23 1.23 0 0 1 .853-.48 3.89 3.89 0 0 0 3.468-4.407 1.233 1.233 0 0 1 .443-1.117 6.93 6.93 0 0 0 2.135-2.964c.146-.391.481-.684.886-.773 3.125-.684 5.392-3.502 5.392-6.702 0-.377.174-.763.471-.994a9.663 9.663 0 0 0 3.77-7.687c0-5.363-4.364-9.722-9.727-9.722-.89 0-1.781.122-2.644.367a1.227 1.227 0 0 1-1.249-.367 7.154 7.154 0 0 0-7.314-2.14 1.23 1.23 0 0 1-1.287-.41 7.122 7.122 0 0 0-5.57-2.667Zm20.411 23.045c.34.005.608.278.603.618-.019 1.998-1.451 3.76-3.398 4.185a.613.613 0 0 1-.726-.467.61.61 0 0 1 .467-.726 3.127 3.127 0 0 0 2.437-3.007.602.602 0 0 1 .617-.603ZM14.286 16.76c.325.085.523.42.439.744a4.971 4.971 0 0 1-4.096 3.676 2.858 2.858 0 0 0-2.427 2.819 2.852 2.852 0 0 0 2.851 2.85.611.611 0 1 1 0 1.222 4.076 4.076 0 0 1-4.072-4.072 4.093 4.093 0 0 1 3.474-4.03 3.75 3.75 0 0 0 3.087-2.77.613.613 0 0 1 .744-.44Zm20.185.198a5.714 5.714 0 0 1-1.008 8.011.613.613 0 0 1-.858-.108.61.61 0 0 1 .108-.858 4.49 4.49 0 0 0 .792-6.296 4.49 4.49 0 0 0-6.296-.792.61.61 0 0 1-.858-.108.61.61 0 0 1 .108-.858 5.714 5.714 0 0 1 8.012 1.009Zm-1.418-6.777c3.968 0 7.191 3.228 7.191 7.191a.612.612 0 1 1-1.22.005 5.976 5.976 0 0 0-7.597-5.745.613.613 0 0 1-.33-1.178c.64-.18 1.3-.273 1.956-.273ZM14.989 4.963c1.404 0 2.719.626 3.605 1.724a3.742 3.742 0 0 0 2.922 1.395.611.611 0 1 1 0 1.226 4.955 4.955 0 0 1-3.874-1.852 3.397 3.397 0 0 0-2.653-1.273 3.407 3.407 0 0 0-3.403 3.403.611.611 0 1 1-1.225.005 4.633 4.633 0 0 1 4.628-4.628Z" fill="#313132" fill-rule="evenodd"/></svg>