<svg viewBox="0 0 48 48" xmlns="http://www.w3.org/2000/svg"><path d="m13.134 1 .344 1.676c2.675 13.1 14.342 22.61 27.737 22.61a28.48 28.48 0 0 0 5.108-.459L48 24.521l-.26 1.68c-1.835 11.754-11.815 20.285-23.728 20.285C10.77 46.486 0 35.716 0 22.477 0 14.095 4.468 6.206 11.667 1.882L13.134 1ZM11.51 4.878c-5.717 4.049-9.085 10.513-9.085 17.6 0 11.901 9.684 21.588 21.592 21.588 10.148 0 18.736-6.882 21.012-16.592a30.716 30.716 0 0 1-3.809.237c-13.952-.005-26.176-9.506-29.71-22.833Zm26.929 9.435.352 1.08a.6.6 0 0 0 .568.41h1.134c.576 0 .816.738.352 1.079l-.917.665a.593.593 0 0 0-.217.666l.353 1.08c.177.548-.45 1.005-.917.664l-.917-.665a.598.598 0 0 0-.7 0l-.917.665c-.468.34-1.095-.116-.917-.665l.352-1.08a.593.593 0 0 0-.217-.665l-.917-.665c-.468-.34-.228-1.08.352-1.08H36.4a.6.6 0 0 0 .569-.41l.352-1.079c.162-.55.94-.55 1.118 0Zm-8.666-9.757.545 1.68c.124.382.48.642.883.642h1.764c.897 0 1.272 1.149.545 1.679l-1.427 1.036a.927.927 0 0 0-.337 1.037l.545 1.68c.279.854-.7 1.566-1.427 1.036l-1.428-1.037a.93.93 0 0 0-1.09 0l-1.428 1.037c-.727.53-1.706-.182-1.428-1.037l.546-1.679a.927.927 0 0 0-.337-1.037l-1.427-1.036c-.727-.53-.352-1.68.545-1.68h1.764a.925.925 0 0 0 .882-.642l.546-1.679c.278-.854 1.485-.854 1.764 0Z" fill="#313132" fill-rule="evenodd"/></svg>