<svg viewBox="0 0 48 48" xmlns="http://www.w3.org/2000/svg"><path d="M22.938 35.44c.24 0 .444.174.48.403l.007.088v9.897c0 .24-.174.441-.402.483l-.089.008h-.906a.491.491 0 0 1-.483-.403l-.008-.088v-.084a4.151 4.151 0 0 1-.585.355 3.982 3.982 0 0 1-1.79.406c-1.143 0-2.134-.42-2.942-1.248-.802-.822-1.211-1.84-1.211-3.018 0-1.157.413-2.161 1.224-2.983.816-.822 1.81-1.242 2.957-1.242a3.848 3.848 0 0 1 2.18.644l.17.124v-2.851c0-.24.175-.441.403-.483l.088-.008h.907Zm4.164.247c.842 0 1.485.102 1.965.315.5.22.9.565 1.19 1.021.288.457.434.968.434 1.52 0 .517-.129.997-.382 1.423a2.6 2.6 0 0 1-.376.487 2.879 2.879 0 0 1 1.268 1.343c.18.386.271.812.271 1.269 0 .913-.338 1.694-1.004 2.324-.606.574-1.405.886-2.373.931l-.246.006h-2.652a.491.491 0 0 1-.482-.403l-.008-.088v-9.657c0-.241.174-.441.402-.483l.088-.008h1.905ZM23.99.913c13.277.18 24.024 11.099 23.983 24.345-.02 7.665-3.545 14.712-9.671 19.332-.203.152-.44.227-.677.227a1.123 1.123 0 0 1-.68-2.023c5.562-4.194 8.758-10.588 8.778-17.542.034-12.022-9.718-21.93-21.737-22.093-11.988.163-21.74 10.074-21.706 22.093.02 6.954 3.217 13.348 8.778 17.542a1.13 1.13 0 0 1 .22 1.576 1.125 1.125 0 0 1-1.573.22C3.579 39.97.055 32.923.034 25.258-.003 12.012 10.744 1.093 23.99.913Zm-4.722 38.969a2.275 2.275 0 0 0-2.02 1.187 2.377 2.377 0 0 0-.321 1.2c0 .42.108.813.325 1.202.216.385.497.676.859.89.727.429 1.586.422 2.337 0a2.15 2.15 0 0 0 .853-.843c.2-.362.3-.761.3-1.221 0-.7-.223-1.265-.676-1.729-.45-.463-.994-.686-1.657-.686Zm7.62 1.793h-.25v2.72h.704c.795 0 1.18-.092 1.363-.17.24-.102.43-.254.575-.47.142-.21.213-.43.213-.673a1.17 1.17 0 0 0-.297-.799c-.217-.243-.511-.409-.903-.504-.186-.044-.578-.096-1.405-.104Zm.373-4.063h-.626v2.107h.061c.754 0 1.123-.08 1.299-.152a1.092 1.092 0 0 0 .714-1.028c0-.295-.088-.504-.281-.66-.149-.122-.474-.267-1.167-.267ZM23.99 8.227a16.95 16.95 0 0 1 11.883 5.067l2.97-2.412a.564.564 0 0 1 .765.05.56.56 0 0 1 .003.765l-2.625 2.845a16.908 16.908 0 0 1 3.731 10.22 17.026 17.026 0 0 1-5.128 12.59 1.126 1.126 0 0 1-1.59-.02 1.126 1.126 0 0 1 .02-1.59 14.76 14.76 0 0 0 4.449-10.923 14.693 14.693 0 0 0-3.028-8.603l-7.147 7.743a3.891 3.891 0 0 1-3.745 4.925 3.891 3.891 0 0 1-3.887-3.886 3.89 3.89 0 0 1 5.26-3.636l8.193-6.647a14.66 14.66 0 0 0-10.128-4.242c-7.881.122-14.244 6.423-14.444 14.346a14.78 14.78 0 0 0 4.449 10.922c.443.433.453 1.144.02 1.59a1.127 1.127 0 0 1-1.59.02 17.036 17.036 0 0 1-5.125-12.59A16.918 16.918 0 0 1 23.99 8.227Z" fill="#313132" fill-rule="evenodd"/></svg>