<svg viewBox="0 0 48 48" xmlns="http://www.w3.org/2000/svg"><path d="M22.673 27.44c.305 0 .555.246.555.554v9.458c.004 1.216.035 1.612.054 1.74.068.525.214.951.44 1.283.22.322.576.6 1.06.83.924.44 1.879.477 2.722.087.385-.179.71-.426.968-.74.26-.32.453-.715.578-1.176.061-.233.136-.812.136-2.247v-9.235c0-.304.247-.555.555-.555h1.53a.56.56 0 0 1 .559.555v9.235c0 1.415-.143 2.586-.427 3.48-.301.947-.904 1.78-1.79 2.47-.898.698-1.991 1.053-3.25 1.053-1.34 0-2.512-.328-3.48-.978-.985-.66-1.655-1.55-1.99-2.64-.204-.65-.305-1.76-.305-3.385v-9.235c0-.304.247-.555.555-.555Zm12.86 0c.223 0 .423.135.511.338l4.563 10.636 4.638-10.64a.56.56 0 0 1 .51-.335h1.666a.556.556 0 0 1 .511.779l-6.658 15.297a.56.56 0 0 1-.511.335h-.332a.559.559 0 0 1-.511-.339l-6.564-15.297a.556.556 0 0 1 .511-.775Zm-23.956 8.946a1.88 1.88 0 0 1 2.566-.687l.136.087a1.887 1.887 0 0 1 .55 2.479l-2.101 3.642a1.885 1.885 0 0 1-2.566.687 1.88 1.88 0 0 1-.687-2.566ZM7.103 30.08a1.887 1.887 0 0 1 2.423.761c.517.897.21 2.045-.684 2.566L5.199 35.51a1.885 1.885 0 0 1-2.566-.687 1.88 1.88 0 0 1 .688-2.566l3.639-2.102ZM20.9 13.26c6.286 0 11.401 5.114 11.401 11.397a1.881 1.881 0 0 1-1.879 1.878 1.881 1.881 0 0 1-1.878-1.878c0-4.215-3.43-7.644-7.644-7.644s-7.643 3.43-7.643 7.644a7.643 7.643 0 0 0 3.47 6.411 1.882 1.882 0 0 1 .545 2.6 1.878 1.878 0 0 1-2.6.541 11.372 11.372 0 0 1-5.173-9.549c0-6.286 5.115-11.4 11.401-11.4ZM6.08 22.445c1.036 0 1.88.843 1.88 1.879a1.88 1.88 0 0 1-1.876 1.879H1.879A1.881 1.881 0 0 1 0 24.325c0-1.036.843-1.879 1.879-1.879Zm30.52-8.638a1.88 1.88 0 0 1 2.566.687 1.88 1.88 0 0 1-.687 2.566l-3.64 2.102a1.81 1.81 0 0 1-.933.25c-.67 0-1.293-.359-1.629-.937a1.88 1.88 0 0 1 .688-2.566Zm-32.493-.762a1.857 1.857 0 0 1 1.425.186l3.642 2.102a1.88 1.88 0 0 1 .688 2.566 1.885 1.885 0 0 1-2.566.687l-3.643-2.102a1.886 1.886 0 0 1-.687-2.566c.25-.433.657-.744 1.141-.873ZM29.074 7.41a1.88 1.88 0 0 1 2.566-.687 1.88 1.88 0 0 1 .687 2.566l-2.102 3.642a1.885 1.885 0 0 1-2.566.687 1.88 1.88 0 0 1-.687-2.566ZM10.737 6.39c.434-.25.941-.315 1.425-.186.485.128.89.44 1.141.873l2.106 3.64a1.882 1.882 0 0 1-1.628 2.816c-.67 0-1.294-.36-1.629-.938l-2.105-3.64a1.882 1.882 0 0 1 .69-2.566Zm10.497-2.634c1.036 0 1.88.843 1.88 1.88v4.2a1.881 1.881 0 0 1-1.88 1.879 1.88 1.88 0 0 1-1.878-1.876V5.636c0-1.036.843-1.879 1.878-1.879Z" fill="#313132" fill-rule="evenodd"/></svg>