<svg viewBox="0 0 48 48" xmlns="http://www.w3.org/2000/svg"><path d="M23.231 31.11a1 1 0 0 1 .945.254c.66.64 1.565 1.524 2.107 2.113.86.935 1.514 1.755 2.066 2.578.603.9 1.04 1.768 1.338 2.648.183.539.315 1.094.393 1.653.088.603.115 1.155.094 1.687-.084 1.985-1.219 3.729-2.963 4.548a.665.665 0 0 1-.281.065.6.6 0 0 1-.336-.102.636.636 0 0 1-.277-.552.39.39 0 0 1 .139-.26 3.404 3.404 0 0 0 1.334-2.71c0-.64-.166-1.653-.952-2.828a9.236 9.236 0 0 0-.887-1.104 26.69 26.69 0 0 0-.952-.952c-.01.101-.088.65-.16 1.134-.365 2.5-.47 2.849-.863 2.849h-.056c-.244-.011-.331-.168-1.041-2.55l-.061-.207c-.183.18-.396.39-.532.538-.254.278-.45.519-.61.76-.22.32-.724 1.066-.724 2.36 0 .59.152 1.172.44 1.68.105.257.227.48.383.704a.571.571 0 0 1-.034.722.559.559 0 0 1-.698.125 5.288 5.288 0 0 1-.874-.556c-.853-.707-1.412-1.588-1.66-2.618a5.459 5.459 0 0 1-.141-1.453c.03-.968.29-1.957.799-3.028.339-.71.742-1.395 1.1-1.998l.048-.081c.417-.698.847-1.423 1.22-2.158.22-.43.565-1.354.978-2.597.109-.332.38-.58.718-.664ZM23.986 1C37.28 1.18 48.04 12.113 48 25.376c-.02 7.675-3.55 14.73-9.683 19.356-.204.152-.44.227-.678.227a1.125 1.125 0 0 1-.68-2.025c5.567-4.2 8.768-10.602 8.788-17.565.034-12.037-9.73-21.958-21.764-22.12C11.98 3.41 2.215 13.335 2.249 25.369c.02 6.963 3.221 13.365 8.79 17.565.494.376.592 1.083.22 1.578a1.127 1.127 0 0 1-1.576.22C3.55 40.105.021 33.051 0 25.376-.037 12.113 10.723 1.18 23.986 1Zm0 7.323a16.972 16.972 0 0 1 11.899 5.073l2.973-2.415a.565.565 0 0 1 .766.051.56.56 0 0 1 .003.766L37 14.646a16.929 16.929 0 0 1 3.736 10.232A17.047 17.047 0 0 1 35.6 37.484a1.127 1.127 0 0 1-1.592-.02 1.127 1.127 0 0 1 .02-1.592 14.778 14.778 0 0 0 4.454-10.937 14.711 14.711 0 0 0-3.03-8.613l-7.157 7.753a3.896 3.896 0 0 1-3.75 4.931 3.896 3.896 0 0 1-3.891-3.891 3.894 3.894 0 0 1 5.266-3.641l8.204-6.655a14.678 14.678 0 0 0-10.141-4.248c-7.892.122-14.262 6.432-14.462 14.364a14.799 14.799 0 0 0 4.454 10.937c.443.433.454 1.145.02 1.592a1.128 1.128 0 0 1-1.592.02 17.057 17.057 0 0 1-5.131-12.606A16.94 16.94 0 0 1 23.986 8.323Z" fill="#313132" fill-rule="evenodd"/></svg>