<svg viewBox="0 0 48 48" xmlns="http://www.w3.org/2000/svg"><path d="m29.533 28.306.811.697c.425.366.771.786 1.018 1.299 1.129 2.316 2.272 4.621 3.408 6.93.376.76.026 1.719-.712 1.973-.49.17-1.04-.037-1.434-.59-.542-.76-1.055-1.538-1.579-2.309-.53-.79-1.066-1.575-1.6-2.36a6.54 6.54 0 0 0 .088-5.64ZM14.905 9.6l.089.156L25.587 29.95c.79 1.506-.244 3.303-1.901 3.41l-.157.006H2.336c-1.702 0-2.812-1.752-2.134-3.274l.068-.142L10.863 9.755c.846-1.61 3.105-1.662 4.042-.156Zm-1.976 16.89a1.713 1.713 0 0 0 0 3.422 1.713 1.713 0 0 0 0-3.423Zm31.29-14.67c.255 0 .484.1.687.3a10.184 10.184 0 0 1 2.773 4.802c.229.892.321 1.693.321 2.759-.022 2.154-.752 4.234-2.113 6.026-.27.35-.587.708-1 1.125a.957.957 0 0 1-.907.266.973.973 0 0 1-.7-.65c-.126-.383-.042-.715.26-1.017a8.623 8.623 0 0 0 1.42-1.837 8.251 8.251 0 0 0 .97-2.707 8.308 8.308 0 0 0-2.179-7.163c-.03-.033-.063-.063-.092-.096a1.94 1.94 0 0 1-.32-.39.932.932 0 0 1-.02-.845.938.938 0 0 1 .65-.543c.088-.018.17-.03.25-.03Zm-31.25 3.84-.121.007c-.56.056-1.004.5-1.06 1.06l-.007.121v6.808c0 .616.467 1.121 1.067 1.182l.121.006.122-.006a1.187 1.187 0 0 0 1.06-1.06l.006-.122v-6.808c0-.657-.531-1.188-1.188-1.188Zm27.19-1.265c.173 0 .335.045.49.13a5.634 5.634 0 0 1 2.52 2.802c.29.694.42 1.417.427 2.413-.092 2.006-1.11 3.621-2.954 4.676a.956.956 0 0 1-.87.048 1.008 1.008 0 0 1-.568-.708c-.089-.417.118-.83.52-1.058a3.852 3.852 0 0 0 1.342-1.258c.867-1.324.741-3.15-.295-4.345a4 4 0 0 0-1.062-.863 1 1 0 0 1-.49-.608.928.928 0 0 1 .11-.764.94.94 0 0 1 .83-.465Zm-14.454-.044c.17-.004.354.026.516.081.774.262 1.538.553 2.312.804.631.203 1.004.675 1.306 1.203.291.512.52 1.066.764 1.608.276.62.553 1.239.863 1.844.059.11.228.217.357.232 1.487.162 2.973.07 4.452-.088.2-.022.395-.052.594-.052.483.004.874.306.948.716a.898.898 0 0 1-.601 1.043c-.45.17-.915.306-1.376.436a24.212 24.212 0 0 1-4.105.748c-1.044.103-1.885-.254-2.56-1.044-.155-.18-.313-.357-.501-.571-.236.52-.458 1.003-.679 1.486-.21.454-.413.911-.62 1.365l-5.082-9.69c.059-.003.118-.003.177-.007 1.077-.04 2.158-.084 3.235-.114ZM29.229 8l.193.003a3.51 3.51 0 0 1 3.353 3.64c-.078 1.896-1.708 3.43-3.574 3.356-1.977-.077-3.493-1.682-3.415-3.61.08-1.959 1.693-3.46 3.636-3.386Z" fill="#313132" fill-rule="evenodd"/></svg>