<svg viewBox="0 0 48 48" xmlns="http://www.w3.org/2000/svg"><path d="m5.135 4 7.023.048a4.896 4.896 0 0 1 4.86 4.927l-.013 2.066-10.302 19.64a7.365 7.365 0 0 0 .22 7.288 7.357 7.357 0 0 0 6.35 3.583v-.003h2.53a4.891 4.891 0 0 1-3.919 1.916l-7.024-.047A4.892 4.892 0 0 1 0 38.49L.207 8.86A4.892 4.892 0 0 1 5.135 4Zm22.278 6.04.094.165 11.911 22.707c.892 1.695-.278 3.721-2.156 3.836l-.167.005H13.273c-1.918 0-3.165-1.978-2.397-3.69l.073-.15 11.915-22.708c.952-1.816 3.5-1.871 4.55-.165Zm14.095 2.66 2.95.021A3.564 3.564 0 0 1 48 16.311l-.115 16.415a3.564 3.564 0 0 1-3.59 3.543h-.088a7.364 7.364 0 0 0-.539-5.585l-5.774-11.007.024-3.434a3.564 3.564 0 0 1 3.59-3.542ZM25.184 29.019a1.922 1.922 0 1 0 0 3.847c1.063 0 1.923-.86 1.923-1.924 0-1.063-.86-1.923-1.923-1.923Zm.047-12.172-.129.006c-.632.06-1.134.56-1.198 1.191l-.007.137v7.654c0 .695.528 1.264 1.205 1.329l.13.006.128-.006a1.332 1.332 0 0 0 1.199-1.192l.006-.137V18.18c0-.738-.596-1.334-1.334-1.334Z" fill="#313132" fill-rule="evenodd"/></svg>