<svg viewBox="0 0 48 48" xmlns="http://www.w3.org/2000/svg" xmlns:xlink="http://www.w3.org/1999/xlink"><defs><path d="M24 0c13.255 0 24 10.745 24 24S37.255 48 24 48 0 37.255 0 24 10.745 0 24 0zm9.795 14.001a2.05 2.05 0 0 0-1.472.728c-4.146 4.615-7.928 9.155-11.933 13.685l-4.91-4.354c-.598-.53-1.405-.667-2.118-.358-.712.31-1.222 1.018-1.338 1.858-.115.84.182 1.684.78 2.215l6.422 5.706c.852.755 2.079.678 2.85-.178 4.61-5.132 8.748-10.182 13.27-15.216.637-.682.83-1.729.486-2.633-.344-.905-1.153-1.482-2.037-1.453z" id="a"/></defs><use fill="#313132" xlink:href="#a" fill-rule="evenodd"/></svg>