<svg viewBox="0 0 48 48" xmlns="http://www.w3.org/2000/svg"><path d="M33.6 15.4a7.2 7.2 0 1 0 0-14.4 7.2 7.2 0 0 0 0 14.4Zm-19.2 0a7.2 7.2 0 1 0 0-14.4 7.2 7.2 0 0 0 0 14.4ZM33.6 13a4.8 4.8 0 1 1 0-9.6 4.8 4.8 0 0 1 0 9.6Zm-19.2 0a4.8 4.8 0 1 1 0-9.6 4.8 4.8 0 0 1 0 9.6ZM24 27.4a4.8 4.8 0 1 0 0-9.6 4.8 4.8 0 0 0 0 9.6ZM7.2 34.6a7.2 7.2 0 1 0 0-14.4 7.2 7.2 0 0 0 0 14.4Zm33.6 0a7.2 7.2 0 1 0 0-14.4 7.2 7.2 0 0 0 0 14.4ZM7.2 32.2a4.8 4.8 0 1 1 0-9.6 4.8 4.8 0 0 1 0 9.6Zm33.6 0a4.8 4.8 0 1 1 0-9.6 4.8 4.8 0 0 1 0 9.6ZM24 46.6a7.2 7.2 0 1 0 0-14.4 7.2 7.2 0 0 0 0 14.4Zm0-2.4a4.8 4.8 0 1 1 0-9.6 4.8 4.8 0 0 1 0 9.6Z" fill="#313132" fill-rule="evenodd"/></svg>