<svg viewBox="0 0 48 48" xmlns="http://www.w3.org/2000/svg"><path d="M24.74 37.722V48h-1.48V37.722h1.48Zm9.487-4.542 7.267 7.267-1.047 1.047-7.267-7.267 1.047-1.047Zm-20.454 0 1.047 1.047-7.267 7.267-1.047-1.047 7.267-7.267ZM24 13.33c5.726 0 10.367 4.641 10.367 10.367 0 5.726-4.641 10.367-10.367 10.367-5.726 0-10.367-4.641-10.367-10.367 0-5.726 4.641-10.368 10.367-10.368Zm0 2.073a8.294 8.294 0 1 0 0 16.588 8.294 8.294 0 0 0 0-16.588Zm24 7.856v1.482H37.722v-1.482H48Zm-37.722 0v1.482H0v-1.482h10.278ZM40.447 6.506l1.047 1.047-7.267 7.267-1.047-1.047 7.267-7.267Zm-32.894 0 7.267 7.267-1.047 1.047-7.267-7.267 1.047-1.047ZM24.741 0v10.278h-1.482V0h1.482Z" fill="#313132" fill-rule="evenodd"/></svg>