<svg viewBox="0 0 48 48" xmlns="http://www.w3.org/2000/svg" xmlns:xlink="http://www.w3.org/1999/xlink"><defs><path d="M48 15.088C48 7.872 42.136 2 34.926 2c-4.511 0-8.565 2.26-10.936 5.877C21.59 4.257 17.485 2 13.077 2 5.867 2 0 7.872 0 15.088c0 1.26.175 2.498.52 3.681 1.112 6.064 8.55 13.06 15.744 19.826 2.501 2.351 4.864 4.572 6.874 6.674a1.793 1.793 0 0 0 1.957.425c.383-.153.692-.43.886-.772 2.91-3.54 6.283-6.816 9.55-9.99 6.08-5.904 11.342-11.016 11.978-16.266.327-1.152.491-2.351.491-3.578zM44.035 17.8c-.033.108-.052.22-.066.33-.408 4.015-5.52 8.98-10.928 14.232-2.943 2.86-5.975 5.802-8.729 8.99-1.721-1.724-3.617-3.504-5.597-5.367-6.49-6.105-13.85-13.024-14.69-17.932a1.452 1.452 0 0 0-.05-.211 9.563 9.563 0 0 1-.4-2.754c0-5.245 4.263-9.512 9.502-9.512 3.675 0 7.057 2.16 8.62 5.503.039.086.086.169.139.247.27.397.469.76.63 1.146a1.79 1.79 0 0 0 3.36-.166 9.466 9.466 0 0 1 9.097-6.727c5.237 0 9.498 4.267 9.498 9.511a9.363 9.363 0 0 1-.386 2.71z" id="a"/></defs><use fill="#313132" xlink:href="#a" fill-rule="evenodd"/></svg>