<svg viewBox="0 0 48 48" xmlns="http://www.w3.org/2000/svg"><path d="M24 16.8a7.2 7.2 0 1 1 0 14.4 7.2 7.2 0 0 1 0-14.4Zm0 2.4a4.8 4.8 0 1 0 0 9.6 4.8 4.8 0 0 0 0-9.6Zm0 2.4a2.4 2.4 0 1 1 0 4.8 2.4 2.4 0 0 1 0-4.8ZM25.104.566l5.764 6.736c.381.445.443 1.257.138 1.814-.167.306-.421.484-.69.484H17.684c-.488 0-.884-.578-.884-1.29 0-.393.122-.763.332-1.008L22.896.566c.645-.755 1.562-.755 2.208 0Zm0 46.868 5.764-6.736c.381-.445.443-1.257.138-1.814-.167-.306-.421-.484-.69-.484H17.684c-.488 0-.884.578-.884 1.29 0 .393.122.763.332 1.008l5.764 6.736c.645.755 1.562.755 2.208 0Z" fill="#313132" fill-rule="evenodd"/></svg>