<svg viewBox="0 0 48 48" xmlns="http://www.w3.org/2000/svg"><path d="M36 12c6.627 0 12 5.373 12 12s-5.373 12-12 12H12C5.373 36 0 30.627 0 24s5.373-12 12-12h24Zm-24 2.4A9.6 9.6 0 0 0 2.4 24l.013.494.042.542c.093.864.3 1.695.607 2.475l.16.381.138.297.147.291.244.433.258.41.263.374.247.32.324.381.28.3.291.287.372.333.35.284.53.38.421.267.552.305.497.237.46.188.588.201.255.075a9.562 9.562 0 0 0 1.594.297l.488.036.479.012a9.6 9.6 0 1 0 0-19.2Zm24 0H19.2A11.982 11.982 0 0 1 24 24a11.98 11.98 0 0 1-4.802 9.602L36 33.6a9.6 9.6 0 0 0 9.6-9.6 9.6 9.6 0 0 0-9.12-9.588L36 14.4Zm-24 2.4a7.2 7.2 0 1 1 0 14.4 7.2 7.2 0 0 1 0-14.4Z" fill="#313132" fill-rule="evenodd"/></svg>