<svg viewBox="0 0 48 48" xmlns="http://www.w3.org/2000/svg" xmlns:xlink="http://www.w3.org/1999/xlink"><defs><path d="M44.866 2.44a1.5 1.5 0 0 1 .103 2.007l-.103.114-10.812 10.81.001 24.643c0 1.142-1.174 1.78-2.086 1.208l-.104-.071-13.398-10.193L4.561 44.866a1.5 1.5 0 0 1-2.225-2.008l.103-.114L14.514 30.67h-.019l19.559-19.558v.018l8.69-8.69a1.5 1.5 0 0 1 2.122 0ZM34.05 5.334l.005.124-.001 2.823L11.666 30.67H9.863a1.37 1.37 0 0 1-1.357-1.246l-.006-.138v-13.1c0-.697.517-1.308 1.228-1.377l.135-.007h8.226l13.776-10.43c.843-.667 2.093-.095 2.185.963Z" id="a"/></defs><use fill="#313132" xlink:href="#a" fill-rule="evenodd"/></svg>