<svg viewBox="0 0 48 48" xmlns="http://www.w3.org/2000/svg"><path d="M47.498 41.406 27.831 2.41a4.255 4.255 0 0 0-7.667 0L.5 41.406C-1.01 44.403 1.08 48 4.334 48h39.334c3.25-.004 5.344-3.597 3.83-6.594zm-25.627-25.3c0-1.265.985-2.29 2.201-2.29 1.216 0 2.201 1.025 2.201 2.29v13.143c0 1.264-.985 2.29-2.2 2.29-1.217 0-2.202-1.026-2.202-2.29V16.106zM24 41.328c-1.754 0-3.177-1.48-3.177-3.304 0-1.825 1.423-3.304 3.177-3.304s3.177 1.479 3.177 3.304c0 1.825-1.423 3.304-3.177 3.304z" fill="#313132" fill-rule="evenodd"/></svg>