<?xml version="1.0" encoding="UTF-8"?>
<svg width="1500px" height="1500px" viewBox="0 0 1500 1500" version="1.1" xmlns="http://www.w3.org/2000/svg" xmlns:xlink="http://www.w3.org/1999/xlink">
    <title>Slice</title>
    <g id="Page-1" stroke="none" stroke-width="1" fill="none" fill-rule="evenodd">
        <path d="M750.000553,126 C839.1312,126 911.732163,195.83194 911.732163,281.563117 L911.732163,864.613056 C991.36407,916.268591 1039.07005,1002.6368 1039,1095.02209 C1039,1169.27048 1008.93859,1239.10242 954.379827,1291.5803 C900.292765,1343.88573 826.697964,1373.20371 750.000553,1373 C672.753993,1373 600.180039,1344.11013 545.621279,1291.60627 C491.251709,1239.57782 460.781142,1168.79048 461,1095.02209 C460.922066,1002.62761 508.629099,916.247751 588.268943,864.587077 L588.268943,281.589096 C588.387938,195.717205 660.723633,126.128796 750.000553,126 Z M750.5,183 C723.443326,182.96727 697.495833,193.331579 678.433511,211.785878 C659.22222,230.102252 648.428377,255.040734 648.455365,281.048464 L648.455365,879.938609 C648.455365,890.070795 642.859805,899.449562 633.777157,904.671535 C600.009669,923.922426 571.889746,951.109204 552.060354,983.676607 C531.705368,1017.3074 520.988378,1055.52236 521,1094.4292 C520.826121,1152.96042 545.036032,1209.12352 588.228757,1250.38692 C631.162591,1291.89914 689.599302,1315.16711 750.5,1315 C811.400698,1315.16711 869.837409,1291.89914 912.771243,1250.38692 C955.963968,1209.12352 980.173879,1152.96042 980,1094.4292 C980.024532,1055.52072 969.306651,1017.30258 948.939646,983.676607 C929.137807,951.088833 901.01169,923.896067 867.222843,904.671535 C858.134757,899.488073 852.550187,890.095316 852.517603,879.938609 L852.517603,281.048464 C852.551739,255.044489 841.76786,230.10654 822.566489,211.785878 C803.504167,193.331579 777.556674,182.96727 750.5,183 Z M795.458175,576 L795.458175,935.975786 C871.363348,955.692237 924.068872,1021.96992 924,1097.61823 C923.982025,1184.3693 855.090659,1256.73505 765.276594,1264.34644 C675.46253,1271.95782 594.484972,1212.29287 578.707086,1126.88043 C562.9292,1041.468 617.578868,958.608841 704.618041,935.975786 L704.618041,576 L795.458175,576 L795.458175,576 Z" id="Shape" fill="#000000"></path>
    </g>
</svg>