<?xml version="1.0" encoding="UTF-8"?>
<svg width="1487px" height="1487px" viewBox="0 0 1487 1487" version="1.1" xmlns="http://www.w3.org/2000/svg" xmlns:xlink="http://www.w3.org/1999/xlink">
    <title>Slice</title>
    <g id="Page-1" stroke="none" stroke-width="1" fill="none" fill-rule="evenodd">
        <g id="extra" transform="translate(45.000000, 458.000000)" fill="#000000" fill-rule="nonzero">
            <g id="right">
                <path d="M1139.12752,96.0213924 C1073.7535,95.5011324 1011.10995,133.902206 982.257453,190.600725 C952.636077,246.936043 957.614046,318.290187 994.244004,368.588526 C959.861526,316.64106 958.954647,246.778983 989.532186,194.556664 C1019.55771,141.755186 1079.62848,109.371459 1138.8318,112.512651 C1198.24213,114.210859 1253.1772,152.032775 1277.04188,204.245278 C1301.90215,256.114214 1294.48942,320.596998 1259.46621,364.426446 L1286.15994,384 C1326.2597,328.665936 1330.8138,251.961951 1299.32939,193.280554 C1268.94899,134.108347 1204.56069,94.9514238 1139.12752,96.0213924 Z" id="Shape"></path>
                <path d="M1134.00145,174 C1093.96027,174 1057.8618,198.120223 1042.53871,235.113447 C1027.21562,272.106671 1035.68551,314.687712 1063.99889,343.001103 C1092.31228,371.314488 1134.89333,379.784385 1171.88655,364.461291 C1208.87977,349.138194 1233,313.039731 1233,272.998553 C1232.95632,218.341262 1188.65873,174.043674 1134.00145,174 Z" id="Shape"></path>
                <path d="M1135.54139,138 C1081.54288,137.98406 1032.85254,170.4997 1012.17715,220.383235 C991.501767,270.26677 1002.91356,327.693126 1041.09063,365.881476 C1079.26771,404.069826 1136.69069,415.498581 1186.58033,394.837935 C1236.46998,374.177286 1269,325.496562 1269,271.498055 C1269,197.784519 1209.25493,138.021787 1135.54139,138 Z M1135.54139,377.568912 C1092.62996,377.568909 1053.94423,351.718638 1037.52458,312.072888 C1021.10493,272.427136 1030.18521,226.794142 1060.53099,196.454002 C1090.87677,166.113862 1136.51146,157.042071 1176.15415,173.469089 C1215.79685,189.896107 1241.63994,228.58663 1241.63197,271.498055 C1241.56676,330.063234 1194.10656,377.523429 1135.54139,377.588628 L1135.54139,377.568912 Z" id="Shape"></path>
                <path d="M1310.19042,0 L87.7799961,0 C39.3139695,0.032630685 0.0326407296,39.3018717 0,87.7529841 L0,414.430722 C0.0544299627,457.038072 30.6835911,493.46421 72.6601383,500.842761 L72.6601383,545.350287 C72.6601383,558.963948 83.6995887,570 97.3174407,570 L287.967702,570 C301.585554,570 312.625005,558.963948 312.625005,545.350287 L312.625005,502.144266 L1085.39472,502.144266 L1085.39472,545.350287 C1085.39472,558.963948 1096.43417,570 1110.05203,570 L1300.68256,570 C1314.30041,570 1325.33986,558.963948 1325.33986,545.350287 L1325.33986,500.842761 C1367.31641,493.46421 1397.94557,457.038072 1398,414.430722 L1398,87.7135443 C1397.94559,39.2662932 1358.6526,0.0162890051 1310.19042,0 Z M1367.77014,414.430722 C1367.73211,446.205576 1341.97505,471.954705 1310.19042,471.992736 L87.7799961,471.992736 C55.9953591,471.954705 30.2383065,446.205576 30.2002638,414.430722 L30.2002638,87.7135443 C30.2328726,55.934838 55.9915137,30.1797126 87.7799961,30.1416711 L1310.19042,30.1416711 C1341.97889,30.1797126 1367.73753,55.934838 1367.77014,87.7135443 L1367.77014,414.430722 Z" id="Shape"></path>
                <path d="M366,222 C349.431459,222 336,235.431458 336,252 C336,268.568542 349.431459,282 366,282 C382.568541,282 396,268.568542 396,252 C395.979204,235.440079 382.559919,222.020797 366,222 Z" id="Shape"></path>
                <path d="M366,201 C337.833477,201 315,223.833478 315,252 C315,280.166523 337.833477,303 366,303 C394.166523,303 417,280.166523 417,252 C417,223.833478 394.166523,201 366,201 Z M366,290.579225 C344.693283,290.579225 327.420774,273.306718 327.420774,252 C327.420774,230.693282 344.693283,213.420775 366,213.420775 C387.306717,213.420775 404.579226,230.693282 404.579226,252 C404.551731,273.293704 387.293709,290.547264 366,290.569249 L366,290.579225 Z" id="Shape"></path>
                <path d="M188.962251,222 C172.399866,222.02084 158.987855,235.459601 158.999992,252.022 C159.01216,268.5844 172.443879,282.003464 189.006277,282 C205.568674,281.996534 218.994777,268.571851 218.999992,252.009449 C218.984375,235.431109 205.540592,222 188.962251,222 Z" id="Shape"></path>
                <path d="M189,201 C160.833478,201 138,223.833478 138,252 C138,280.166523 160.833478,303 189,303 C217.166523,303 240,280.166523 240,252 C240,238.473959 234.626801,225.50191 225.062446,215.937554 C215.498091,206.373199 202.526041,201 189,201 Z M189,290.579225 C167.693282,290.579225 150.420775,273.306718 150.420775,252 C150.420775,230.693282 167.693282,213.420775 189,213.420775 C210.306718,213.420775 227.579225,230.693282 227.579225,252 C227.551733,273.293704 210.293711,290.547264 189,290.569249 L189,290.579225 Z" id="Shape"></path>
            </g>
            <path d="M543,225 C526.431459,225 513,238.431459 513,255 C513,271.568541 526.431459,285 543,285 C559.568541,285 573,271.568541 573,255 C572.979204,238.440081 559.559919,225.020796 543,225 Z" id="Shape"></path>
            <path d="M543,204 C514.833477,204 492,226.833477 492,255 C492,283.166523 514.833477,306 543,306 C571.166523,306 594,283.166523 594,255 C594,226.833477 571.166523,204 543,204 Z M543,293.579226 C521.693283,293.579226 504.420774,276.306717 504.420774,255 C504.420774,233.693283 521.693283,216.420774 543,216.420774 C564.306717,216.420774 581.579226,233.693283 581.579226,255 C581.551731,276.293706 564.293709,293.547264 543,293.569248 L543,293.579226 Z" id="Shape"></path>
        </g>
    </g>
</svg>