<?xml version="1.0" encoding="UTF-8"?>
<svg width="500px" height="500px" viewBox="0 0 500 500" version="1.1" xmlns="http://www.w3.org/2000/svg" xmlns:xlink="http://www.w3.org/1999/xlink">
    <title>Slice</title>
    <g id="Page-1" stroke="none" stroke-width="1" fill="none" fill-rule="evenodd">
        <g id="motion-closed" transform="translate(83.000000, 111.000000)">
            <g id="Group" transform="translate(0.000000, 57.000000)" stroke="#000000" stroke-width="3">
                <path d="M297.654717,147.8125 C307.871698,129 313.320755,108.171875 313.320755,86 C313.320755,63.828125 307.871698,42.328125 297.654717,24.1875" id="Path"></path>
                <path d="M63.345283,24.1875 C53.1283019,43 47.6792453,63.828125 47.6792453,86 C47.6792453,108.171875 53.1283019,129.671875 63.345283,147.8125" id="Path"></path>
                <path d="M338.522642,172 C352.826415,146.46875 361,116.90625 361,86 C361,54.421875 352.826415,25.53125 338.522642,0" id="Path"></path>
                <path d="M22.4773585,0 C8.17358491,25.53125 0,54.421875 0,86 C0,117.578125 8.17358491,146.46875 22.4773585,172" id="Path"></path>
            </g>
            <g id="Group" transform="translate(96.000000, 0.000000)" fill="#000000" fill-rule="nonzero">
                <path d="M92.6262654,46.8950399 C105.560142,48.2533247 117.132558,38.0661884 117.813288,25.1624825 C118.494019,12.2587765 108.963794,0.713355362 96.0299171,0.0342129431 C83.0960405,-0.644929476 71.5236246,8.86306439 70.8428942,21.7667704 C70.1621639,34.6704763 79.6923888,46.2158975 92.6262654,46.8950399" id="Path"></path>
                <path d="M72.8850853,57.0821762 C77.6501977,53.6864641 83.0960405,51.6490368 89.2226136,52.3281792 C97.3913778,53.0073217 104.198681,57.7613186 108.283063,63.8736004 L132.108626,111.41357 L164.783682,133.82527 C167.506604,135.862697 169.548795,139.258409 168.868064,143.333263 C168.187334,149.445545 163.422222,153.5204 157.295648,152.841257 C155.253457,152.841257 153.891997,152.162115 152.530536,151.482972 L117.132558,127.033845 C115.771097,126.354703 115.090367,124.996418 114.409637,123.638133 L105.560142,105.98043 L94.6684564,152.841257 L136.873738,202.418654 C137.554468,203.776939 138.235199,205.814366 138.915929,207.851793 L150.488345,267.616326 C150.488345,268.974611 150.488345,269.653753 150.488345,271.012038 C149.807615,279.84089 142.319581,286.632314 133.470086,285.953171 C125.982052,285.274029 120.53621,279.84089 119.174749,273.049466 L108.283063,217.359787 L74.246546,180.006954 L66.0777818,216.001502 C66.0777818,218.03893 63.3548604,221.434642 62.67413,222.792926 L29.9990733,277.803462 C26.5954216,282.557459 21.1495788,285.953171 15.0230057,285.274029 C6.17351113,284.594887 -0.633792356,277.12432 0.0469379921,268.295469 C0.0469379921,265.578899 1.40839869,262.862329 2.08912904,261.504044 L32.7219947,210.568363 L57.9090176,98.5098638 L41.5714892,112.092712 L32.7219947,152.162115 C31.360534,157.595254 26.5954216,161.670109 21.1495788,160.990966 C15.0230057,160.311824 10.9386236,155.557827 11.6193539,149.445545 C11.6193539,148.766403 11.6193539,148.766403 11.6193539,148.08726 L21.8303091,101.226433 C22.5110395,99.1890062 23.8725002,97.1515789 25.2339609,95.7932941 L72.8850853,57.0821762" id="Path"></path>
            </g>
        </g>
    </g>
</svg>