<?xml version="1.0" encoding="UTF-8"?>
<svg width="500px" height="500px" viewBox="0 0 500 500" version="1.1" xmlns="http://www.w3.org/2000/svg" xmlns:xlink="http://www.w3.org/1999/xlink">
    <title>Slice</title>
    <g id="Page-1" stroke="none" stroke-width="1" fill="none" fill-rule="evenodd">
        <g id="right" transform="translate(17.000000, 175.000000)" fill="#000000" fill-rule="nonzero">
            <path d="M379.709173,32.0071308 C357.917832,31.8337108 337.03665,44.6340688 327.419151,63.5335749 C317.545359,82.3120144 319.204682,106.096729 331.414668,122.862842 C319.953842,105.54702 319.651549,82.2596611 329.844062,64.8522213 C339.85257,47.2517288 359.876159,36.457153 379.610601,37.5042171 C399.414042,38.0702862 417.725735,50.6775916 425.680628,68.0817593 C433.967384,85.3714046 431.496472,106.865666 419.82207,121.475482 L428.71998,128 C442.086565,109.555312 443.604599,83.987317 433.109795,64.4268513 C422.982997,44.7027823 401.520231,31.6504746 379.709173,32.0071308 Z" id="Shape"></path>
            <path d="M378.000483,58 C364.653424,58 352.6206,66.0400744 347.512903,78.3711491 C342.405205,90.7022238 345.228504,104.895904 354.666298,114.333701 C364.104095,123.771496 378.297776,126.594795 390.628851,121.487097 C402.959925,116.379398 411,104.346577 411,90.9995177 C410.98544,72.7804208 396.219578,58.014558 378.000483,58 Z" id="Shape"></path>
            <path d="M378.513796,46.000002 C360.514293,45.9946868 344.284181,56.8332332 337.392384,73.4610783 C330.500589,90.0889234 334.30452,109.231042 347.030211,121.960492 C359.755902,134.689942 378.896896,138.499527 395.526776,131.612645 C412.156659,124.725762 423,108.498854 423,90.4993518 C423,65.9281731 403.084976,46.0072622 378.513796,46.000002 Z M378.513796,125.856304 C364.209987,125.856303 351.314745,117.239546 345.841528,104.024296 C340.36831,90.8090454 343.395069,75.5980475 353.510329,65.4846675 C363.62559,55.3712875 378.837153,52.347357 392.051385,57.8230296 C405.265618,63.2987022 413.879979,76.1955434 413.877322,90.4993518 C413.855588,110.021078 398.035521,125.841143 378.513796,125.862876 L378.513796,125.856304 Z" id="Shape"></path>
            <path d="M436.73014,0 L29.2599987,0 C13.1046565,0.010876895 0.0108802432,13.1006239 0,29.2509947 L0,138.143574 C0.0181433209,152.346024 10.2278637,164.48807 24.2200461,166.947587 L24.2200461,181.783429 C24.2200461,186.321316 27.8998629,190 32.4391469,190 L95.9892341,190 C100.528518,190 104.208335,186.321316 104.208335,181.783429 L104.208335,167.381422 L361.798241,167.381422 L361.798241,181.783429 C361.798241,186.321316 365.478057,190 370.017343,190 L433.560852,190 C438.100138,190 441.779954,186.321316 441.779954,181.783429 L441.779954,166.947587 C455.772136,164.48807 465.981856,152.346024 466,138.143574 L466,29.2378481 C465.981863,13.0887644 452.884201,0.00542966838 436.73014,0 Z M455.923381,138.143574 C455.910702,148.735192 447.325018,157.318235 436.73014,157.330912 L29.2599987,157.330912 C18.6651197,157.318235 10.0794355,148.735192 10.0667546,138.143574 L10.0667546,29.2378481 C10.0776242,18.644946 18.6638379,10.0599042 29.2599987,10.0472237 L436.73014,10.0472237 C447.326298,10.0599042 455.912511,18.644946 455.923381,29.2378481 L455.923381,138.143574 Z" id="Shape"></path>
            <path d="M122,74 C116.477153,74 112,78.4771526 112,84 C112,89.5228474 116.477153,94 122,94 C127.522847,94 132,89.5228474 132,84 C131.993068,78.4800265 127.519973,74.0069324 122,74 Z" id="Shape"></path>
            <path d="M122,67 C112.611159,67 105,74.6111594 105,84 C105,93.3888409 112.611159,101 122,101 C131.388841,101 139,93.3888409 139,84 C139,74.6111594 131.388841,67 122,67 Z M122,96.8597418 C114.897761,96.8597418 109.140258,91.1022392 109.140258,84 C109.140258,76.8977608 114.897761,71.1402582 122,71.1402582 C129.102239,71.1402582 134.859742,76.8977608 134.859742,84 C134.850577,91.0979015 129.097903,96.8490879 122,96.8564163 L122,96.8597418 Z" id="Shape"></path>
            <path d="M62.987417,74 C57.4666221,74.0069467 52.9959517,78.4865338 53,84.0073335 C53.0040535,89.5281333 57.4812929,94.0011546 63.0020923,94 C68.5228913,93.9988446 72.9982589,89.5239505 73,84.0031495 C72.9947915,78.4770363 68.5135307,74 62.987417,74 Z" id="Shape"></path>
            <path d="M63,67 C53.6111594,67 46,74.6111594 46,84 C46,93.3888409 53.6111594,101 63,101 C72.3888409,101 80,93.3888409 80,84 C80,79.4913197 78.2089337,75.1673033 75.0208154,71.9791846 C71.832697,68.7910663 67.5086803,67 63,67 Z M63,96.8597418 C55.8977608,96.8597418 50.1402582,91.1022392 50.1402582,84 C50.1402582,76.8977608 55.8977608,71.1402582 63,71.1402582 C70.1022392,71.1402582 75.8597418,76.8977608 75.8597418,84 C75.8505777,91.0979015 70.0979035,96.8490879 63,96.8564163 L63,96.8597418 Z" id="Shape"></path>
        </g>
        <path d="M198,250 C192.477153,250 188,254.477153 188,260 C188,265.522847 192.477153,270 198,270 C203.522847,270 208,265.522847 208,260 C207.993068,254.480027 203.519973,250.006932 198,250 Z" id="Shape" fill="#000000" fill-rule="nonzero"></path>
        <path d="M198,243 C188.611159,243 181,250.611159 181,260 C181,269.388841 188.611159,277 198,277 C207.388841,277 215,269.388841 215,260 C215,250.611159 207.388841,243 198,243 Z M198,272.859742 C190.897761,272.859742 185.140258,267.102239 185.140258,260 C185.140258,252.897761 190.897761,247.140258 198,247.140258 C205.102239,247.140258 210.859742,252.897761 210.859742,260 C210.850577,267.097902 205.097903,272.849088 198,272.856416 L198,272.859742 Z" id="Shape" fill="#000000" fill-rule="nonzero"></path>
    </g>
</svg>